<?xml version="1.0" encoding="iso-8859-1"?>
<!-- Generator: Adobe Illustrator 19.0.0, SVG Export Plug-In . SVG Version: 6.00 Build 0)  -->
<svg version="1.1" id="Capa_1" xmlns="http://www.w3.org/2000/svg" xmlns:xlink="http://www.w3.org/1999/xlink" x="0px" y="0px"
	 viewBox="0 0 512 512" style="enable-background:new 0 0 512 512;" xml:space="preserve">
<path style="fill:#65AAFC;" d="M451.203,132.407c-0.348,0-0.692,0.019-1.038,0.026c-6.098-37.564-38.672-66.248-77.958-66.248
	c-25.764,0-48.644,12.335-63.064,31.421c-1.499,1.984-4.073,2.88-6.433,2.093c-7.492-2.499-15.595-3.655-24.037-3.156
	c-21.586,1.276-40.345,13.433-50.914,30.983c33.034,5.287,61.814,23.309,81.138,48.883c2.409,3.188,6.547,4.629,10.338,3.364
	c12.039-4.016,25.063-5.875,38.629-5.073c34.564,2.043,64.621,21.443,81.641,49.48h10.944c25.163,0,46.215-19.943,46.635-45.102
	C497.512,153.377,476.806,132.407,451.203,132.407z"/>
<g>
	<path style="fill:#2E84FF;" d="M460.465,223.092c-17.028-27.993-47.07-47.353-81.601-49.394c-7.37-0.436-14.577-0.08-21.556,0.974
		c0.185,0.01,0.369,0.015,0.554,0.026c34.564,2.043,64.621,21.443,81.642,49.481h10.943
		C453.879,224.179,457.229,223.797,460.465,223.092z"/>
	<path style="fill:#2E84FF;" d="M329.898,175.408c-23.012-30.455-59.432-50.206-100.479-50.483c-0.572,0.854-1.129,1.718-1.66,2.6
		c33.034,5.287,61.814,23.309,81.138,48.883c2.409,3.188,6.547,4.629,10.338,3.364c3.822-1.275,7.745-2.331,11.752-3.155
		C330.595,176.248,330.229,175.846,329.898,175.408z"/>
</g>
<path style="fill:#AAE8FF;" d="M217.904,333.579c0.43,0,0.854,0.023,1.281,0.032c7.524-46.35,47.717-81.742,96.192-81.742
	c31.79,0,60.021,15.22,77.814,38.769c1.85,2.448,5.026,3.554,7.937,2.583c9.243-3.083,19.243-4.51,29.658-3.895
	c8.032,0.475,15.738,2.188,22.956,4.917c1.296-7.297,1.829-14.857,1.497-22.6c-2.244-52.229-44.189-94.859-96.374-97.944
	c-13.566-0.802-26.59,1.057-38.629,5.073c-3.791,1.265-7.929-0.175-10.338-3.364c-23.175-30.672-59.947-50.496-101.352-50.496
	c-63.138,0-115.488,46.098-125.288,106.468c-0.556-0.012-1.109-0.042-1.669-0.042c-41.147,0-74.423,33.7-73.733,75.005
	c0.675,40.434,34.508,72.483,74.947,72.483h79.642C167.709,353.008,190.53,333.579,217.904,333.579z"/>
<g>
	<path style="fill:#6BD9FC;" d="M27.855,306.342c-0.69-41.304,32.586-75.005,73.734-75.005c0.006,0,0.011,0,0.017,0
		c0.952,0.001,1.764-0.662,1.929-1.599c9.909-56.346,56.956-99.887,114.973-104.428c-3.289-0.255-6.61-0.399-9.965-0.399
		c-63.138,0-115.488,46.098-125.288,106.468c-0.557-0.012-1.109-0.042-1.668-0.042c-40.896,0-74.017,33.29-73.742,74.249
		c0.27,40.288,34.434,73.239,74.723,73.239h20.235C62.363,378.825,28.531,346.776,27.855,306.342z"/>
	<path style="fill:#6BD9FC;" d="M429.785,288.325c-10.416-0.616-20.415,0.812-29.658,3.895c-2.911,0.971-6.086-0.135-7.937-2.583
		c-17.792-23.549-46.025-38.769-77.814-38.769c-48.475,0-88.667,35.392-96.192,81.742c-0.427-0.009-0.851-0.032-1.281-0.032
		c-31.592,0-57.14,25.873-56.61,57.586c0.518,31.044,26.493,55.65,57.542,55.65h207.203c44.682,0,80.679-37.181,78.739-82.291
		C502.055,323.423,469.852,290.694,429.785,288.325z"/>
</g>
<path style="fill:#65AAFC;" d="M181.296,390.164c-0.53-31.713,25.018-57.586,56.61-57.586c0.43,0,0.854,0.023,1.281,0.032
	c6.976-42.974,42.041-76.506,85.746-81.167c-3.468-0.374-6.989-0.576-10.556-0.576c-48.475,0-88.667,35.392-96.192,81.743
	c-0.427-0.01-0.851-0.032-1.281-0.032c-31.592,0-57.14,25.873-56.61,57.586c0.518,31.044,26.493,55.651,57.542,55.651h21.002
	C207.789,445.814,181.814,421.208,181.296,390.164z"/>
<path d="M488.033,427.701c40.886-42.683,27.742-113.164-26.356-138.13c2.394-19.692-0.431-40.011-9.068-58.921
	c21.876-0.608,41.538-14.409,49.237-34.742c1.467-3.874-0.484-8.204-4.358-9.671c-3.875-1.467-8.204,0.484-9.671,4.358
	c-5.68,15.002-20.434,25.082-36.711,25.082h-6.803c-18.947-28.659-50.396-47.403-85.34-49.467
	c-23.783-1.408-40.318,5.297-41.702,5.479c-2.127,0.273-1.878-2.581-13.192-14.112c-17.337-17.715-38.913-30.081-62.639-36.06
	c15.241-16.857,38.62-22.692,59.563-15.703c5.373,1.792,11.318-0.09,14.791-4.687c13.657-18.075,34.462-28.441,57.081-28.441
	c35.243,0,64.915,25.212,70.555,59.949c0.6,3.694,3.878,6.387,7.573,6.297l0.466-0.014c0.134-0.005,0.268-0.011,0.403-0.011
	c14.985,0,28.695,8.816,34.929,22.46c1.722,3.768,6.173,5.426,9.939,3.705c3.768-1.721,5.426-6.172,3.705-9.939
	c-7.947-17.393-24.637-29.144-43.421-30.977c-4.197-17.661-13.935-33.685-27.837-45.625c-15.653-13.444-35.652-20.848-56.312-20.848
	c-26.986,0-51.837,12.194-68.36,33.5c-8.268-2.593-16.878-3.644-25.616-3.129c-21.736,1.285-41.619,12.53-54.131,30.362
	c-5.445-0.661-10.97-1.006-16.555-1.006c-32.115,0-63.201,11.508-87.533,32.406c-22.454,19.285-37.92,45.424-43.998,74.146
	c-43.102,2.369-77.396,38.387-76.659,82.505c0.735,44.035,37.72,79.86,82.447,79.86h71.117
	c-2.221,37.667,28.543,67.989,64.917,67.989h93.513c4.142,0,7.501-3.358,7.501-7.501c0-4.142-3.358-7.501-7.501-7.501h-93.513
	c-27.148,0-49.597-21.656-50.042-48.275c-0.487-29.171,24.31-50.814,49.668-49.946c4.668,0.14,7.571-2.853,8.127-6.28
	c12.758-78.591,113.269-102.318,160.617-39.653c3.833,5.072,10.384,7.149,16.294,5.176c44.758-14.934,91.769,17.617,93.784,64.508
	c1.766,41.103-30.995,74.469-71.246,74.469h-78.687c-4.142,0-7.501,3.358-7.501,7.501c0,4.142,3.358,7.501,7.501,7.501h78.687
	C449.453,454.315,471.592,444.863,488.033,427.701z M212.625,326.263c-26.968,2.033-48.886,20.664-56.363,45.063H82.457
	c-36.591,0-66.848-29.207-67.448-65.108c-0.62-37.127,29.222-67.379,66.233-67.379c0.268,0,0.533,0.01,0.798,0.02l0.706,0.021
	c0.056,0.001,0.111,0.002,0.167,0.002c3.668,0,6.811-2.661,7.402-6.299c9.422-58.042,59-100.169,117.885-100.169
	c37.266,0,72.427,17.161,95.367,47.517c4.324,5.725,11.83,8.25,18.696,5.958c64.605-21.549,130.687,30.912,124.87,98.509
	c-15.845-4.078-32.652-3.582-48.394,1.6C344.002,213.761,231.843,240.825,212.625,326.263z"/>
<g>
</g>
<g>
</g>
<g>
</g>
<g>
</g>
<g>
</g>
<g>
</g>
<g>
</g>
<g>
</g>
<g>
</g>
<g>
</g>
<g>
</g>
<g>
</g>
<g>
</g>
<g>
</g>
<g>
</g>
</svg>
